{"accessors":[{"bufferView":2,"componentType":5126,"count":4416,"max":[0.6927518844604492,0.6300321817398071,1.4889066219329834],"min":[-0.7082020044326782,-0.44067782163619995,-1.5166962146759033],"type":"VEC3"},{"bufferView":2,"byteOffset":52992,"componentType":5126,"count":4416,"max":[1,1,1],"min":[-1,-1,-1],"type":"VEC3"},{"bufferView":1,"componentType":5126,"count":4416,"max":[1.0177751779556274,1],"min":[-0.02530977502465248,-0.000005008633706893306],"type":"VEC2"},{"bufferView":0,"componentType":5125,"count":12300,"max":[4415],"min":[0],"type":"SCALAR"},{"bufferView":2,"byteOffset":105984,"componentType":5126,"count":1224,"max":[0.6988630890846252,0.27521026134490967,1.437506914138794],"min":[-0.7143132090568542,-0.4425073266029358,-1.6687424182891846],"type":"VEC3"},{"bufferView":2,"byteOffset":120672,"componentType":5126,"count":1224,"max":[1,1,0.9946305751800537],"min":[-1,-1,-1],"type":"VEC3"},{"bufferView":1,"byteOffset":35328,"componentType":5126,"count":1224,"max":[1,1],"min":[-1.862645149230957e-7,0],"type":"VEC2"},{"bufferView":0,"byteOffset":49200,"componentType":5125,"count":2952,"max":[1223],"min":[0],"type":"SCALAR"},{"bufferView":2,"byteOffset":135360,"componentType":5126,"count":158,"max":[0.6882674694061279,0.5109845399856567,0.47507524490356445],"min":[-0.7037175893783569,0.12977182865142822,-1.448085069656372],"type":"VEC3"},{"bufferView":2,"byteOffset":137256,"componentType":5126,"count":158,"max":[0.9955000281333923,0.505816638469696,0.8626410365104675],"min":[-0.9955000281333923,0,-0.9820995926856995],"type":"VEC3"},{"bufferView":1,"byteOffset":45120,"componentType":5126,"count":158,"max":[0.6100180149078369,0.4888199269771576],"min":[0,0],"type":"VEC2"},{"bufferView":0,"byteOffset":61008,"componentType":5125,"count":426,"max":[157],"min":[0],"type":"SCALAR"},{"bufferView":2,"byteOffset":139152,"componentType":5126,"count":1182,"max":[0.5653330683708191,0.2651846408843994,0.8131805658340454],"min":[-0.5807831883430481,-0.2591715455055237,-1.6741820573806763],"type":"VEC3"},{"bufferView":2,"byteOffset":153336,"componentType":5126,"count":1182,"max":[1,1,1],"min":[-1,-1,-1],"type":"VEC3"},{"bufferView":1,"byteOffset":46384,"componentType":5126,"count":1182,"max":[1,1],"min":[0,0],"type":"VEC2"},{"bufferView":0,"byteOffset":62712,"componentType":5125,"count":2862,"max":[1181],"min":[0],"type":"SCALAR"},{"bufferView":2,"byteOffset":167520,"componentType":5126,"count":66,"max":[0.48558616638183594,-0.030871987342834473,1.3919692039489746],"min":[-0.5010362863540649,-0.160392165184021,1.3700156211853027],"type":"VEC3"},{"bufferView":2,"byteOffset":168312,"componentType":5126,"count":66,"max":[0.5978745818138123,0.5467214584350586,0.9992982149124146],"min":[-0.5978745818138123,-0.5438422560691833,0.8013471961021423],"type":"VEC3"},{"bufferView":1,"byteOffset":55840,"componentType":5126,"count":66,"max":[0,0],"min":[0,0],"type":"VEC2"},{"bufferView":0,"byteOffset":74160,"componentType":5125,"count":318,"max":[65],"min":[0],"type":"SCALAR"},{"bufferView":2,"byteOffset":169104,"componentType":5126,"count":261,"max":[0.6098405718803406,-0.021574735641479492,1.4354658126831055],"min":[-0.6252906918525696,-0.5220990777015686,-1.3139930963516235],"type":"VEC3"},{"bufferView":2,"byteOffset":172236,"componentType":5126,"count":261,"max":[1,0.15802621841430664,1],"min":[-1,-0.9998830556869507,-0.9963894486427307],"type":"VEC3"},{"bufferView":1,"byteOffset":56368,"componentType":5126,"count":261,"max":[0.9079754948616028,0.47339627146720886],"min":[0,0],"type":"VEC2"},{"bufferView":0,"byteOffset":75432,"componentType":5125,"count":816,"max":[260],"min":[0],"type":"SCALAR"},{"bufferView":2,"byteOffset":175368,"componentType":5126,"count":228,"max":[0.5492204427719116,-0.18936771154403687,-1.4449188709259033],"min":[-0.5646705627441406,-0.41989946365356445,-1.5001676082611084],"type":"VEC3"},{"bufferView":2,"byteOffset":178104,"componentType":5126,"count":228,"max":[0.9983671307563782,1,0],"min":[-0.9983671307563782,-1,-0.9989237189292908],"type":"VEC3"},{"bufferView":1,"byteOffset":58456,"componentType":5126,"count":228,"max":[0.9868829846382141,1],"min":[0,0],"type":"VEC2"},{"bufferView":0,"byteOffset":78696,"componentType":5125,"count":396,"max":[227],"min":[0],"type":"SCALAR"},{"bufferView":2,"byteOffset":180840,"componentType":5126,"count":156,"max":[0.5086070895195007,-0.19666117429733276,-1.4661434888839722],"min":[-0.5240572094917297,-0.24998509883880615,-1.4761420488357544],"type":"VEC3"},{"bufferView":2,"byteOffset":182712,"componentType":5126,"count":156,"max":[0.9914960861206055,0.9999957084655762,0.14395847916603088],"min":[-0.9914960861206055,-0.9999955892562866,-0.9986361861228943],"type":"VEC3"},{"bufferView":1,"byteOffset":60280,"componentType":5126,"count":156,"max":[0.9720309972763062,0.8148612380027771],"min":[0.6649173498153687,0.04007067531347275],"type":"VEC2"},{"bufferView":0,"byteOffset":80280,"componentType":5125,"count":300,"max":[155],"min":[0],"type":"SCALAR"},{"bufferView":2,"byteOffset":184584,"componentType":5126,"count":210,"max":[0.5422788858413696,-0.0831184983253479,1.336615800857544],"min":[-0.5577290058135986,-0.24998480081558228,-1.4675332307815552],"type":"VEC3"},{"bufferView":2,"byteOffset":187104,"componentType":5126,"count":210,"max":[0.9955616593360901,0.9999957084655762,0.1278764307498932],"min":[-0.9937983751296997,-0.9999955892562866,-0.9986292719841003],"type":"VEC3"},{"bufferView":1,"byteOffset":61528,"componentType":5126,"count":210,"max":[0.7675228118896484,0.8170397877693176],"min":[0,0],"type":"VEC2"},{"bufferView":0,"byteOffset":81480,"componentType":5125,"count":450,"max":[209],"min":[0],"type":"SCALAR"},{"bufferView":2,"byteOffset":189624,"componentType":5126,"count":184,"max":[0.11128854006528854,0.037976622581481934,1.4379677772521973],"min":[-0.07398591190576553,-0.17681235074996948,-1.6687424182891846],"type":"VEC3"},{"bufferView":2,"byteOffset":191832,"componentType":5126,"count":184,"max":[0.09699104726314545,0.0989719033241272,0.9997737407684326],"min":[-0.09699104726314545,-0.0989719033241272,-1],"type":"VEC3"},{"bufferView":1,"byteOffset":63208,"componentType":5126,"count":184,"max":[0.8348252177238464,0.9553152322769165],"min":[0.16179266571998596,0.04833507537841797],"type":"VEC2"},{"bufferView":0,"byteOffset":83280,"componentType":5125,"count":696,"max":[183],"min":[0],"type":"SCALAR"},{"bufferView":2,"byteOffset":194040,"componentType":5126,"count":553,"max":[1.209651231765747,-0.0023796558380126953,1.2065038681030273],"min":[-1.204404592514038,-0.2549746036529541,-1.2075510025024414],"type":"VEC3"},{"bufferView":2,"byteOffset":200676,"componentType":5126,"count":553,"max":[0.9905958771705627,0.13626785576343536,0.9988083839416504],"min":[-0.9999444484710693,-1,-0.9982724785804749],"type":"VEC3"},{"bufferView":1,"byteOffset":64680,"componentType":5126,"count":553,"max":[0,0],"min":[0,0],"type":"VEC2"},{"bufferView":0,"byteOffset":86064,"componentType":5125,"count":1920,"max":[552],"min":[0],"type":"SCALAR"},{"bufferView":2,"byteOffset":207312,"componentType":5126,"count":308,"max":[1.622093677520752,0.8542399406433105,1.6189470291137695],"min":[-1.616847276687622,-0.25252246856689453,-1.6199932098388672],"type":"VEC3"},{"bufferView":2,"byteOffset":211008,"componentType":5126,"count":308,"max":[1,1,1],"min":[-1,-1,-1],"type":"VEC3"},{"bufferView":1,"byteOffset":69104,"componentType":5126,"count":308,"max":[0,0],"min":[0,0],"type":"VEC2"},{"bufferView":0,"byteOffset":93744,"componentType":5125,"count":1668,"max":[307],"min":[0],"type":"SCALAR"},{"bufferView":2,"byteOffset":214704,"componentType":5126,"count":170,"max":[0.2946970462799072,-0.09402179718017578,0.32746410369873047],"min":[-0.3435022830963135,-0.21108269691467285,-0.3288993835449219],"type":"VEC3"},{"bufferView":2,"byteOffset":216744,"componentType":5126,"count":170,"max":[1,1,1],"min":[-1,-1,-1],"type":"VEC3"},{"bufferView":1,"byteOffset":71568,"componentType":5126,"count":170,"max":[1,1],"min":[0,0.01000000536441803],"type":"VEC2"},{"bufferView":0,"byteOffset":100416,"componentType":5125,"count":420,"max":[169],"min":[0],"type":"SCALAR"},{"bufferView":2,"byteOffset":218784,"componentType":5126,"count":553,"max":[1.209651231765747,-0.0023796558380126953,1.2065048217773438],"min":[-1.204404592514038,-0.2549746036529541,-1.207550048828125],"type":"VEC3"},{"bufferView":2,"byteOffset":225420,"componentType":5126,"count":553,"max":[0.9905958771705627,0.13626785576343536,0.9988083839416504],"min":[-0.9999444484710693,-1,-0.9982724785804749],"type":"VEC3"},{"bufferView":1,"byteOffset":72928,"componentType":5126,"count":553,"max":[0,0],"min":[0,0],"type":"VEC2"},{"bufferView":0,"byteOffset":102096,"componentType":5125,"count":1920,"max":[552],"min":[0],"type":"SCALAR"},{"bufferView":2,"byteOffset":232056,"componentType":5126,"count":308,"max":[1.622093677520752,0.8542399406433105,1.618947982788086],"min":[-1.616847276687622,-0.25252246856689453,-1.6199922561645508],"type":"VEC3"},{"bufferView":2,"byteOffset":235752,"componentType":5126,"count":308,"max":[1,1,1],"min":[-1,-1,-1],"type":"VEC3"},{"bufferView":1,"byteOffset":77352,"componentType":5126,"count":308,"max":[0,0],"min":[0,0],"type":"VEC2"},{"bufferView":0,"byteOffset":109776,"componentType":5125,"count":1668,"max":[307],"min":[0],"type":"SCALAR"},{"bufferView":2,"byteOffset":239448,"componentType":5126,"count":170,"max":[0.2946970462799072,-0.09402179718017578,0.3274650573730469],"min":[-0.3435022830963135,-0.21108269691467285,-0.32889842987060547],"type":"VEC3"},{"bufferView":2,"byteOffset":241488,"componentType":5126,"count":170,"max":[1,1,1],"min":[-1,-1,-1],"type":"VEC3"},{"bufferView":1,"byteOffset":79816,"componentType":5126,"count":170,"max":[1,1],"min":[0,0.01000000536441803],"type":"VEC2"},{"bufferView":0,"byteOffset":116448,"componentType":5125,"count":420,"max":[169],"min":[0],"type":"SCALAR"},{"bufferView":2,"byteOffset":243528,"componentType":5126,"count":553,"max":[1.2096519470214844,0.254974365234375,1.2065038681030273],"min":[-1.2044038772583008,0.0023794174194335938,-1.2075510025024414],"type":"VEC3"},{"bufferView":2,"byteOffset":250164,"componentType":5126,"count":553,"max":[0.9905958771705627,1,0.9988083839416504],"min":[-0.9999444484710693,-0.13626785576343536,-0.9982724785804749],"type":"VEC3"},{"bufferView":1,"byteOffset":81176,"componentType":5126,"count":553,"max":[0,0],"min":[0,0],"type":"VEC2"},{"bufferView":0,"byteOffset":118128,"componentType":5125,"count":1920,"max":[552],"min":[0],"type":"SCALAR"},{"bufferView":2,"byteOffset":256800,"componentType":5126,"count":308,"max":[1.6220943927764893,0.25252223014831543,1.6189470291137695],"min":[-1.6168465614318848,-0.8542401790618896,-1.6199932098388672],"type":"VEC3"},{"bufferView":2,"byteOffset":260496,"componentType":5126,"count":308,"max":[1,1,1],"min":[-1,-1,-1],"type":"VEC3"},{"bufferView":1,"byteOffset":85600,"componentType":5126,"count":308,"max":[0,0],"min":[0,0],"type":"VEC2"},{"bufferView":0,"byteOffset":125808,"componentType":5125,"count":1668,"max":[307],"min":[0],"type":"SCALAR"},{"bufferView":2,"byteOffset":264192,"componentType":5126,"count":170,"max":[0.29469776153564453,0.21108245849609375,0.32746410369873047],"min":[-0.34350156784057617,0.09402155876159668,-0.3288993835449219],"type":"VEC3"},{"bufferView":2,"byteOffset":266232,"componentType":5126,"count":170,"max":[1,1,1],"min":[-1,-1,-1],"type":"VEC3"},{"bufferView":1,"byteOffset":88064,"componentType":5126,"count":170,"max":[1,1],"min":[0,0.01000000536441803],"type":"VEC2"},{"bufferView":0,"byteOffset":132480,"componentType":5125,"count":420,"max":[169],"min":[0],"type":"SCALAR"},{"bufferView":2,"byteOffset":268272,"componentType":5126,"count":553,"max":[1.2096519470214844,0.254974365234375,1.2065048217773438],"min":[-1.2044038772583008,0.0023794174194335938,-1.207550048828125],"type":"VEC3"},{"bufferView":2,"byteOffset":274908,"componentType":5126,"count":553,"max":[0.9905958771705627,1,0.9988083839416504],"min":[-0.9999444484710693,-0.13626785576343536,-0.9982724785804749],"type":"VEC3"},{"bufferView":1,"byteOffset":89424,"componentType":5126,"count":553,"max":[0,0],"min":[0,0],"type":"VEC2"},{"bufferView":0,"byteOffset":134160,"componentType":5125,"count":1920,"max":[552],"min":[0],"type":"SCALAR"},{"bufferView":2,"byteOffset":281544,"componentType":5126,"count":308,"max":[1.6220943927764893,0.25252223014831543,1.618947982788086],"min":[-1.6168465614318848,-0.8542401790618896,-1.6199922561645508],"type":"VEC3"},{"bufferView":2,"byteOffset":285240,"componentType":5126,"count":308,"max":[1,1,1],"min":[-1,-1,-1],"type":"VEC3"},{"bufferView":1,"byteOffset":93848,"componentType":5126,"count":308,"max":[0,0],"min":[0,0],"type":"VEC2"},{"bufferView":0,"byteOffset":141840,"componentType":5125,"count":1668,"max":[307],"min":[0],"type":"SCALAR"},{"bufferView":2,"byteOffset":288936,"componentType":5126,"count":170,"max":[0.29469776153564453,0.21108245849609375,0.3274650573730469],"min":[-0.34350156784057617,0.09402155876159668,-0.32889842987060547],"type":"VEC3"},{"bufferView":2,"byteOffset":290976,"componentType":5126,"count":170,"max":[1,1,1],"min":[-1,-1,-1],"type":"VEC3"},{"bufferView":1,"byteOffset":96312,"componentType":5126,"count":170,"max":[1,1],"min":[0,0.01000000536441803],"type":"VEC2"},{"bufferView":0,"byteOffset":148512,"componentType":5125,"count":420,"max":[169],"min":[0],"type":"SCALAR"}],"asset":{"extras":{"author":"Alexus16 (https://sketchfab.com/Alexus16)","license":"CC-BY-4.0 (http://creativecommons.org/licenses/by/4.0/)","source":"https://sketchfab.com/3d-models/mercedes-benz-g-class-w263-1a2a52b16cad4e618af347461817895c","title":"Mercedes Benz G-class W263"},"generator":"Sketchfab-8.53.0","version":"2.0"},"bufferViews":[{"buffer":0,"byteLength":150192,"byteOffset":0,"name":"floatBufferViews","target":34963},{"buffer":0,"byteLength":97672,"byteOffset":150192,"byteStride":8,"name":"floatBufferViews","target":34962},{"buffer":0,"byteLength":293016,"byteOffset":247864,"byteStride":12,"name":"floatBufferViews","target":34962}],"buffers":[{"byteLength":540880,"uri":"data:application/octet-stream;base64,"}],"images":[{"uri":"data:application/octet-stream;base64,"}],"materials":[{"doubleSided":true,"name":"Material.001","pbrMetallicRoughness":{"baseColorFactor":[0.003152390809319971,0.007646823742357284,0.012518225358363446,1],"metallicFactor":0.6705290967,"roughnessFactor":0.3781122886}},{"doubleSided":true,"emissiveFactor":[0,0,0],"name":"Material.002","pbrMetallicRoughness":{"baseColorFactor":[0.401969,0.401969,0.401969,1],"metallicFactor":1,"roughnessFactor":0}},{"doubleSided":true,"emissiveFactor":[0,0,0],"name":"Material.004","pbrMetallicRoughness":{"baseColorFactor":[0.0444547,0.0444547,0.0444547,1],"metallicFactor":1,"roughnessFactor":0.1537143778}},{"doubleSided":true,"emissiveFactor":[0,0,0],"name":"Material.003","pbrMetallicRoughness":{"baseColorFactor":[0,0,0,1],"metallicFactor":0.6218877114,"roughnessFactor":0.719170482}},{"alphaMode":"BLEND","doubleSided":true,"emissiveFactor":[0,0,0],"name":"Material.005","pbrMetallicRoughness":{"baseColorFactor":[0,0,0,0.4090816506],"metallicFactor":1,"roughnessFactor":1}},{"doubleSided":true,"emissiveFactor":[0,0,0],"name":"Material.009","pbrMetallicRoughness":{"baseColorFactor":[0,0,0,1],"metallicFactor":0,"roughnessFactor":1}},{"doubleSided":true,"emissiveFactor":[0,0,0],"name":"Material.012","pbrMetallicRoughness":{"baseColorFactor":[0.098504,0,0.00379639,1],"metallicFactor":0,"roughnessFactor":0.5}},{"doubleSided":true,"emissiveFactor":[1,0,0.000513264],"name":"Material.013","pbrMetallicRoughness":{"baseColorFactor":[0.8,0,0.000558212,1],"metallicFactor":0,"roughnessFactor":0.5}},{"doubleSided":true,"emissiveFactor":[0,0,0],"name":"Material.014","pbrMetallicRoughness":{"baseColorFactor":[0.8,0.8,0.8,1],"metallicFactor":0,"roughnessFactor":0.5}},{"alphaCutoff":0.013870395,"alphaMode":"MASK","doubleSided":true,"emissiveFactor":[0,0,0],"name":"Material.015","pbrMetallicRoughness":{"baseColorFactor":[1,1,1,1],"baseColorTexture":{"index":0,"texCoord":0},"metallicFactor":1,"roughnessFactor":0.3781122886}},{"doubleSided":true,"emissiveFactor":[0,0,0],"name":"Material.006","pbrMetallicRoughness":{"baseColorFactor":[1,1,1,1],"metallicFactor":1,"roughnessFactor":0.166667}},{"doubleSided":true,"emissiveFactor":[0,0,0],"name":"Material.007","pbrMetallicRoughness":{"baseColorFactor":[0.00560463,0.00560463,0.00560463,1],"metallicFactor":0,"roughnessFactor":1}},{"doubleSided":true,"emissiveFactor":[0,0,0],"name":"Material.008","pbrMetallicRoughness":{"baseColorFactor":[0,0,0,1],"metallicFactor":0,"roughnessFactor":0.5}}],"meshes":[{"primitives":[{"attributes":{"NORMAL":1,"POSITION":0,"TEXCOORD_0":2},"indices":3,"material":0,"mode":4}]},{"primitives":[{"attributes":{"NORMAL":5,"POSITION":4,"TEXCOORD_0":6},"indices":7,"material":1,"mode":4}]},{"primitives":[{"attributes":{"NORMAL":9,"POSITION":8,"TEXCOORD_0":10},"indices":11,"material":2,"mode":4}]},{"primitives":[{"attributes":{"NORMAL":13,"POSITION":12,"TEXCOORD_0":14},"indices":15,"material":3,"mode":4}]},{"primitives":[{"attributes":{"NORMAL":17,"POSITION":16,"TEXCOORD_0":18},"indices":19,"material":4,"mode":4}]},{"primitives":[{"attributes":{"NORMAL":21,"POSITION":20,"TEXCOORD_0":22},"indices":23,"material":5,"mode":4}]},{"primitives":[{"attributes":{"NORMAL":25,"POSITION":24,"TEXCOORD_0":26},"indices":27,"material":6,"mode":4}]},{"primitives":[{"attributes":{"NORMAL":29,"POSITION":28,"TEXCOORD_0":30},"indices":31,"material":7,"mode":4}]},{"primitives":[{"attributes":{"NORMAL":33,"POSITION":32,"TEXCOORD_0":34},"indices":35,"material":8,"mode":4}]},{"primitives":[{"attributes":{"NORMAL":37,"POSITION":36,"TEXCOORD_0":38},"indices":39,"material":9,"mode":4}]},{"primitives":[{"attributes":{"NORMAL":41,"POSITION":40,"TEXCOORD_0":42},"indices":43,"material":10,"mode":4}]},{"primitives":[{"attributes":{"NORMAL":45,"POSITION":44,"TEXCOORD_0":46},"indices":47,"material":11,"mode":4}]},{"primitives":[{"attributes":{"NORMAL":49,"POSITION":48,"TEXCOORD_0":50},"indices":51,"material":12,"mode":4}]},{"primitives":[{"attributes":{"NORMAL":53,"POSITION":52,"TEXCOORD_0":54},"indices":55,"material":10,"mode":4}]},{"primitives":[{"attributes":{"NORMAL":57,"POSITION":56,"TEXCOORD_0":58},"indices":59,"material":11,"mode":4}]},{"primitives":[{"attributes":{"NORMAL":61,"POSITION":60,"TEXCOORD_0":62},"indices":63,"material":12,"mode":4}]},{"primitives":[{"attributes":{"NORMAL":65,"POSITION":64,"TEXCOORD_0":66},"indices":67,"material":10,"mode":4}]},{"primitives":[{"attributes":{"NORMAL":69,"POSITION":68,"TEXCOORD_0":70},"indices":71,"material":11,"mode":4}]},{"primitives":[{"attributes":{"NORMAL":73,"POSITION":72,"TEXCOORD_0":74},"indices":75,"material":12,"mode":4}]},{"primitives":[{"attributes":{"NORMAL":77,"POSITION":76,"TEXCOORD_0":78},"indices":79,"material":10,"mode":4}]},{"primitives":[{"attributes":{"NORMAL":81,"POSITION":80,"TEXCOORD_0":82},"indices":83,"material":11,"mode":4}]},{"primitives":[{"attributes":{"NORMAL":85,"POSITION":84,"TEXCOORD_0":86},"indices":87,"material":12,"mode":4}]}],"nodes":[{"children":[1],"name":"RootNode (gltf orientation matrix)","rotation":[-0.7071067811865475,0,0,0.7071067811865476]},{"children":[2],"name":"RootNode (model correction matrix)"},{"children":[3],"name":"root"},{"children":[4,15,19,23,27],"matrix":[1,0,0,0,0,2.220446049250313e-16,1,0,0,-1,2.220446049250313e-16,0,0,0,0,1],"name":"GLTF_SceneRootNode"},{"children":[5,6,7,8,9,10,11,12,13,14],"matrix":[1,0,0,0,0,1,0,0,0,0,1,0,0.007725049741566181,1.036538004875183,0.8831114768981934,1],"name":"Plane_0"},{"mesh":0,"name":""},{"mesh":1,"name":""},{"mesh":2,"name":""},{"mesh":3,"name":""},{"mesh":4,"name":""},{"mesh":5,"name":""},{"mesh":6,"name":""},{"mesh":7,"name":""},{"mesh":8,"name":""},{"mesh":9,"name":""},{"children":[16,17,18],"matrix":[1.4146830369729836e-8,-0.1678278595209116,0,0,0.1678278595209116,1.4146830369729836e-8,0,0,0,0,0.16782785952091217,0,-0.5754728317260742,0.6148003339767456,1.844916582107544,1],"name":"Circle.001_8"},{"mesh":10,"name":""},{"mesh":11,"name":""},{"mesh":12,"name":""},{"children":[20,21,22],"matrix":[1.4146830369729836e-8,-0.1678278595209116,0,0,0.1678278595209116,1.4146830369729836e-8,0,0,0,0,0.16782785952091217,0,-0.5754728317260742,0.6148003339767456,-0.07482171058654785,1],"name":"Circle.002_9"},{"mesh":13,"name":""},{"mesh":14,"name":""},{"mesh":15,"name":""},{"children":[24,25,26],"matrix":[1.4146830369729836e-8,-0.1678278595209116,0,0,0.1678278595209116,1.4146830369729836e-8,0,0,0,0,0.16782785952091217,0,0.5754726529121399,0.6148006319999695,1.844916582107544,1],"name":"Circle.003_10"},{"mesh":16,"name":""},{"mesh":17,"name":""},{"mesh":18,"name":""},{"children":[28,29,30],"matrix":[1.4146830369729836e-8,-0.1678278595209116,0,0,0.1678278595209116,1.4146830369729836e-8,0,0,0,0,0.16782785952091217,0,0.5754726529121399,0.6148006319999695,-0.07482171058654785,1],"name":"Circle.004_11"},{"mesh":19,"name":""},{"mesh":20,"name":""},{"mesh":21,"name":""}],"samplers":[{"magFilter":9729,"minFilter":9987,"wrapS":10497,"wrapT":10497}],"scene":0,"scenes":[{"name":"OSG_Scene","nodes":[0]}],"textures":[{"sampler":0,"source":0}]}